<?xml version="1.0" encoding="utf-8"?>
<!-- Generator: Adobe Illustrator 22.1.0, SVG Export Plug-In . SVG Version: 6.00 Build 0)  -->
<svg version="1.1" id="Capa_1" xmlns="http://www.w3.org/2000/svg" xmlns:xlink="http://www.w3.org/1999/xlink" x="0px" y="0px"
	 viewBox="0 0 3599 315" style="enable-background:new 0 0 3599 315;" xml:space="preserve">
<style type="text/css">
	.st0{fill:#FFFFFF;}
	.st1{fill:#C0E400;}
</style>
<g>
	<path class="st0" d="M328.5,224.7c-5-5-7.5-11.3-7.5-19c0-5.9,1.5-12.2,4.5-18.8l63.1-140.5c2-4.6,4.7-8.1,8-10.3s7.3-3.3,12.2-3.3
		s8.9,1.1,12.2,3.3s5.9,5.7,8,10.3L492,186.9c3,6.5,4.5,12.6,4.5,18.5c0,7.8-2.5,14.3-7.5,19.3s-12.1,7.9-21.3,8.6l-23.5-51.2h-71.3
		l-23.5,51.2C340.6,232.7,333.5,229.7,328.5,224.7z M431.7,147l-28.8-71.6l-3.9,1.7l7.5,18.8L385.2,147H431.7z"/>
	<path class="st0" d="M532.6,219.6c-8.2-9.2-12.3-20.9-12.3-35.1V55.1c0-8,3.2-13.7,9.4-17.2c6.2-3.4,15.9-5.2,29-5.2V183
		c0,6.1,1.4,10.6,4.2,13.3c2.8,2.7,7.1,4.1,13.1,4.1c7.1,0,14-1.9,21-5.6c2,1.9,3.7,4.2,4.9,7s1.9,5.6,1.9,8.4
		c0,5.9-3,11.3-8.8,16.1c-5.8,4.7-14.4,7.1-25.5,7.1C552.9,233.4,540.7,228.8,532.6,219.6z"/>
	<path class="st0" d="M649.4,226.3c-9.7-4.6-17.5-11-23.3-19c-5.8-8-8.6-17-8.6-26.8v-35.7c0-10.4,3-20,8.8-28.7
		c5.8-8.6,13.7-15.4,23.6-20.2c9.8-4.8,20.5-7.2,31.8-7.2c11.1,0,21.4,2.3,30.9,6.9c9.4,4.5,16.8,11,22.2,19.3
		c5.4,8.3,8.1,17.6,8.1,28.1V158c0,4.5-1.7,8.3-5,11.3c-3.3,3.1-7.6,4.6-12.8,4.6h-70.5v3.9c0,7.4,2.3,13.6,6.9,18.3
		s11.3,7.1,20.2,7.1c8.7,0,15.2-1.9,19.3-5.8c4.1-3.8,6.1-8.6,6.1-14.4c3.7-0.4,6.5-0.6,8.4-0.6c7.6,0,13.5,1.6,17.6,4.7
		c4.1,3.2,6.1,7.8,6.1,14c0,5-2.5,10-7.5,15.1c-5,5-12,9.1-20.8,12.3c-8.8,3.2-18.7,4.7-29.5,4.7C669.9,233.4,659.3,231,649.4,226.3
		z M708.3,146.7v-3.9c0-7.4-2.5-13.4-7.4-17.7c-4.9-4.4-11.4-6.6-19.4-6.6c-8,0-14.5,2.2-19.4,6.6c-4.9,4.4-7.4,10.3-7.4,17.7v3.9
		H708.3L708.3,146.7z"/>
	<path class="st0" d="M816.7,130.3c-6.9,5.8-10.3,13-10.3,21.8V211c0,8-3.2,13.7-9.4,17.2c-6.2,3.4-15.9,5.2-29,5.2V117.6
		c0-9.3,3.1-16.5,9.2-21.5c6.1-5,15.3-7.5,27.4-7.5v16.5c-2.8,3-5.1,6.1-7,9.5l1.9,1.1c11.7-18.1,26.4-27.1,43.9-27.1
		c8.4,0,14.7,2.2,19,6.7c4.3,4.5,6.4,10.1,6.4,17.1c0,5.2-1.4,9.7-4.2,13.6c-5.2-3-12.2-4.5-21-4.5
		C832.6,121.6,823.6,124.5,816.7,130.3z"/>
	<path class="st0" d="M919.5,219.7c-7.4-9.1-11.1-20.9-11.1-35.2v-65.1h-29.6c0-9.5,1.8-16.6,5.3-21.3s8.2-7,14-7h10.9V69.1
		c0-8,3.1-13.7,9.2-17.2c6.1-3.4,15.5-5.2,27.9-5.2v44.5h37.1c0,10-1.9,17.3-5.6,21.6c-3.7,4.4-9.8,6.6-18.5,6.6h-12.5v63.7
		c0,6.1,1.2,10.6,3.6,13.3c2.4,2.7,6.6,4.1,12.5,4.1c6.5,0,13.2-1.9,20.1-5.6c2,1.9,3.7,4.2,4.9,7c1.2,2.8,1.9,5.6,1.9,8.4
		c0,3.7-1.3,7.3-3.9,10.9c-2.6,3.5-6.6,6.5-11.9,8.8c-5.3,2.3-11.8,3.5-19.4,3.5C938.6,233.4,927,228.8,919.5,219.7z"/>
	<path class="st1" d="M1017.1,227.1c-1.6-2.7-2.4-5.5-2.4-8.3c0-1.7,0.3-3.2,0.8-4.5L1085.5,37c1.1-2.8,3.3-4.2,6.7-4.2
		c1.5,0,2.9,0.4,4.2,1.1c1.3,0.7,2.1,1.8,2.5,3.1l69.6,177.1c0.6,1.3,0.8,2.9,0.8,4.7c0,3-0.8,5.8-2.4,8.5c-1.6,2.7-3.8,4.7-6.6,6
		l-24-64.5h-87.7l-24.9,64.5C1020.9,231.9,1018.7,229.8,1017.1,227.1z M1131,155.7l-41.6-106.8l-0.8,0.6l2.8,7.8l-38,98.4H1131z"/>
	<path class="st1" d="M1207.4,104c0-5,0.9-8.8,2.8-11.4c1.9-2.6,5.3-3.9,10.3-3.9v16.2l-5.6,7l0.6,1.1c6.3-8,13.4-14,21.3-18.2
		c7.8-4.1,16.2-6.1,24.9-6.1c17,0,30.4,4.2,40.4,12.5s14.9,19.8,14.9,34.1V187c0,14.2-4.9,25.4-14.7,33.8s-22.9,12.5-39.5,12.5
		c-9.3,0-17.8-1.9-25.4-5.8c-7.6-3.9-15-9.9-22.1-18.2l-0.6,1.4c2.2,2.6,4.1,4.9,5.6,7v57.8c0,9.1-4.3,13.6-12.8,13.6L1207.4,104
		L1207.4,104z M1292.9,212.2c7.5-6.2,11.3-14.6,11.3-25V135c0-10.8-3.7-19.3-11.1-25.4c-7.4-6.1-17.8-9.2-31-9.2
		c-7.4,0-14.4,1.5-20.8,4.5c-6.4,3-11.5,7.1-15.4,12.2c-3.8,5.1-5.8,10.7-5.8,16.6v55c0,9.7,3.9,17.6,11.7,23.8s18.1,9.2,30.7,9.2
		C1275.3,221.6,1285.4,218.5,1292.9,212.2z"/>
	<path class="st1" d="M1358.8,104c0-5,0.9-8.8,2.8-11.4c1.9-2.6,5.3-3.9,10.3-3.9v16.2l-5.6,7l0.6,1.1c6.3-8,13.4-14,21.3-18.2
		c7.8-4.1,16.2-6.1,24.9-6.1c17,0,30.4,4.2,40.4,12.5s14.9,19.8,14.9,34.1V187c0,14.2-4.9,25.4-14.7,33.8
		c-9.7,8.4-22.9,12.5-39.5,12.5c-9.3,0-17.8-1.9-25.4-5.8c-7.6-3.9-15-9.9-22.1-18.2l-0.6,1.4c2.2,2.6,4.1,4.9,5.6,7v57.8
		c0,9.1-4.3,13.6-12.8,13.6L1358.8,104L1358.8,104z M1444.4,212.2c7.5-6.2,11.3-14.6,11.3-25V135c0-10.8-3.7-19.3-11.1-25.4
		c-7.4-6.1-17.8-9.2-31-9.2c-7.4,0-14.4,1.5-20.8,4.5c-6.4,3-11.5,7.1-15.4,12.2c-3.8,5.1-5.8,10.7-5.8,16.6v55
		c0,9.7,3.9,17.6,11.7,23.8s18.1,9.2,30.7,9.2S1436.8,218.5,1444.4,212.2z"/>
</g>
<g>
	<g>
		<path class="st0" d="M3396,137.2h-135c-3.3,0-5.9,2.7-5.9,5.9s2.7,5.9,5.9,5.9h135c3.3,0,5.9-2.7,5.9-5.9
			C3402,139.9,3399.3,137.2,3396,137.2z"/>
	</g>
</g>
<g>
	<g>
		<path class="st0" d="M3396,92.2h-135c-3.3,0-5.9,2.7-5.9,5.9s2.7,5.9,5.9,5.9h135c3.3,0,5.9-2.7,5.9-5.9
			C3402,94.9,3399.3,92.2,3396,92.2z"/>
	</g>
</g>
<g>
	<g>
		<path class="st0" d="M3396,182.3h-135c-3.3,0-5.9,2.7-5.9,5.9c0,3.3,2.7,5.9,5.9,5.9h135c3.3,0,5.9-2.7,5.9-5.9
			C3402,184.9,3399.3,182.3,3396,182.3z"/>
	</g>
</g>
<g>
	<path class="st0" d="M275.9,122.1l-97.3-90.4l-97.3,90.4c-1.4,1.3-1.5,3.4-0.2,4.8s3.4,1.4,4.8,0.2l11.3-10.5v113.2H260V116.6
		l11.3,10.5c0.7,0.6,1.5,0.9,2.3,0.9c0.9,0,1.8-0.4,2.5-1.1C277.4,125.5,277.3,123.3,275.9,122.1z M253.2,223H103.9V110.3L178.6,41
		l74.7,69.3V223H253.2z"/>
</g>
<g>
	<path class="st1" d="M128.5,148.9h41.9V107h-41.9V148.9z M134.4,113h29.9v29.9h-29.9V113z"/>
	<path class="st1" d="M228.7,107h-41.9v41.9h41.9L228.7,107L228.7,107z M222.7,142.9h-29.9V113h29.9V142.9z"/>
	<path class="st1" d="M128.5,206.3h41.9v-41.9h-41.9V206.3z M134.4,170.4h29.9v29.9h-29.9C134.4,200.4,134.4,170.4,134.4,170.4z"/>
	<path class="st1" d="M228.7,164.4h-41.9v41.9h41.9L228.7,164.4L228.7,164.4z M222.7,200.4h-29.9v-29.9h29.9V200.4z"/>
</g>
</svg>
